<svg width="330" height="300" viewBox="0 0 330 300" fill="none" xmlns="http://www.w3.org/2000/svg">
<rect width="330" height="300" rx="24" fill="#FEFCF0"/>
<path d="M209.922 120.959C209.922 120.959 209.922 120.958 209.923 120.958C219.737 120.502 221.763 121.659 228.859 126.526C229.494 126.962 230.339 126.547 230.387 125.778C230.441 124.905 230.533 124.016 230.779 123.291C230.946 122.799 231.059 122.629 231.558 122.445C233.605 121.696 241.763 121.969 243.589 123.059C243.997 123.302 244.075 123.661 244.183 124.106C244.608 125.858 244.394 127.97 244.419 129.783C244.472 135.621 244.457 141.459 244.374 147.299L244.228 165.8C244.193 169.817 244.394 174.001 243.795 177.976C243.343 180.992 242.199 183.786 240.643 186.393C236.816 192.803 230.142 197.471 222.939 199.194C214.435 201.228 203.607 199.304 196.23 194.63C194.879 193.775 191.605 191.771 191.423 190.055C191.3 188.903 192.389 187.728 193.014 186.848C194.454 184.69 196.06 182.402 198.028 180.681C198.306 180.438 198.701 180.383 199.033 180.545C200.478 181.254 201.782 182.242 203.121 183.134C206.829 185.605 210.914 186.902 215.39 186.768C219.37 186.645 223.663 185.284 226.41 182.26C229.274 179.114 229.924 175.013 229.963 170.935C229.971 170.136 229.07 169.687 228.421 170.153C224.789 172.759 222.126 174.615 217.163 175.399C210.623 176.43 203.693 174.955 198.339 170.999C192.92 166.991 189.027 160.987 188.059 154.255C186.864 145.921 187.997 137.669 193.129 130.815C197.192 125.385 203.264 121.941 209.921 120.96C209.921 120.96 209.922 120.96 209.922 120.959ZM218.464 162.652C226.398 161.32 231.739 153.751 230.371 145.779C230.064 143.875 229.384 142.05 228.373 140.412C227.361 138.773 226.035 137.353 224.474 136.232C222.912 135.112 221.146 134.314 219.276 133.885C217.406 133.455 215.47 133.403 213.58 133.731C211.688 134.059 209.883 134.76 208.264 135.795C206.645 136.83 205.246 138.176 204.148 139.758C203.049 141.34 202.273 143.125 201.867 145.01C201.459 146.894 201.426 148.842 201.772 150.739C202.423 154.541 204.545 157.929 207.673 160.161C210.8 162.394 214.681 163.289 218.464 162.652ZM150.332 120.809C166.217 119.344 180.257 131.157 181.623 147.14C182.988 163.124 171.163 177.172 155.261 178.456C139.49 179.729 125.656 167.953 124.3 152.098C122.945 136.241 134.576 122.265 150.332 120.809ZM155.917 165.018C159.619 164.238 162.754 162.226 164.865 159.039C167.311 155.341 168.019 150.161 167.127 145.852C166.705 143.884 165.895 142.02 164.745 140.37C163.595 138.721 162.129 137.32 160.433 136.249C157.376 134.28 153.981 133.67 150.393 134.04C146.664 134.816 143.597 137.268 141.548 140.441C139.113 144.23 138.267 148.834 139.195 153.248C139.617 155.227 140.423 157.103 141.567 158.768C142.712 160.433 144.172 161.854 145.863 162.95C148.959 164.916 152.321 165.366 155.917 165.018ZM46.6011 100H56.1011C56.6533 100 57.1011 100.448 57.1011 101V117.807V142.422C57.1011 143.335 58.224 143.77 58.8395 143.096L77.8003 122.329C77.9917 122.12 78.2632 122.001 78.5471 122.004L90.9347 122.107C91.7878 122.115 92.2408 123.118 91.6819 123.762L72.5818 145.794C72.5705 145.807 72.5604 145.821 72.5516 145.836C72.4925 145.935 72.4985 146.06 72.5668 146.154L86.7257 165.524L93.075 175.096C93.5151 175.759 93.0411 176.646 92.2449 176.649L78.6221 176.693C78.2956 176.694 77.9891 176.535 77.8011 176.268L72.3389 168.509L63.8024 156.95C63.4353 156.453 62.7096 156.404 62.2797 156.848L57.3827 161.904C57.202 162.09 57.101 162.34 57.101 162.599V175.694C57.101 176.247 56.6533 176.694 56.101 176.694H43.1011C42.5489 176.694 42.1011 176.252 42.1011 175.7C42.1011 169.427 42.1011 155 42.1011 155C41.8957 138.542 42.0613 106.953 42.0953 100.986C42.0984 100.436 42.545 100 43.0949 100H46.6011ZM261.656 107.895C264.104 107.683 269.636 107.413 271.95 108.452C272.103 108.52 272.229 108.635 272.297 108.788C273.192 110.79 272.955 118.161 272.896 121.541C272.886 122.094 273.334 122.54 273.887 122.538L283.258 122.513C284.373 122.516 285.507 122.61 286.296 123.503C287.586 124.965 287.01 130.333 286.712 133.056C286.662 133.517 286.302 133.885 285.841 133.939C281.882 134.397 277.958 134.464 273.982 134.521C273.422 134.529 272.978 134.995 272.993 135.555C273.215 143.996 272.638 152.483 273.024 160.925C273.032 161.109 273.092 161.287 273.197 161.438C273.549 161.945 273.918 162.43 274.352 162.873C277.486 166.072 281.649 164.838 285.595 164.64C286.081 164.616 286.5 164.965 286.576 165.445C287.054 168.477 287.165 171.522 286.819 174.581C286.794 175.269 286.81 175.804 286.29 176.323C284.51 178.103 279.512 178.13 277.16 178.156C271.99 178.222 267.371 177.399 263.585 173.605C261.449 171.464 259.939 168.55 259.214 165.614C258.272 161.805 258.576 157.504 258.51 153.596C258.385 147.685 258.338 141.771 258.365 135.859C258.367 135.296 257.906 134.845 257.344 134.874C255.221 134.984 252.228 135.164 250.909 133.86C249.698 132.664 250.2 126.745 250.321 123.796C250.344 123.244 250.793 122.795 251.345 122.784C253.374 122.744 255.405 122.636 257.432 122.544C257.962 122.52 258.382 122.089 258.375 121.558C258.327 118.112 257.97 111.149 258.951 108.7C259.018 108.534 259.141 108.397 259.301 108.318C260.025 107.959 260.847 107.967 261.656 107.895ZM100.483 101.194C100.483 100.642 100.931 100.194 101.483 100.194L114.195 100.194C114.748 100.194 115.195 100.642 115.195 101.194V103.694V120.38L115.141 155.694L115.101 171.194L115.101 175.694C115.101 176.247 114.653 176.694 114.101 176.694C110.856 176.726 104.601 176.694 104.601 176.694L101.397 176.655C100.851 176.648 100.412 176.207 100.409 175.661C100.398 173.503 100.374 168.338 100.38 165.833L100.414 150.54C100.376 139.666 100.399 128.796 100.483 117.923V102.194V101.194Z" fill="#1D3C43"/>
</svg>
