<svg width="158" height="64" viewBox="0 0 158 64" fill="none" xmlns="http://www.w3.org/2000/svg">
<path d="M107.714 13.377C114.417 13.067 115.46 13.923 120.786 17.557C120.851 16.727 120.834 15.648 121.101 14.866C121.208 14.552 121.281 14.443 121.601 14.326C122.915 13.848 128.151 14.022 129.323 14.718C129.585 14.873 129.635 15.102 129.704 15.386C129.977 16.504 129.84 17.852 129.856 19.009C129.89 22.735 129.88 26.461 129.827 30.188L129.733 41.996C129.711 44.56 129.84 47.23 129.455 49.767C129.165 51.692 128.431 53.475 127.432 55.139C124.976 59.23 120.692 62.209 116.069 63.309C110.611 64.607 103.661 63.379 98.9259 60.396C98.0589 59.85 95.9579 58.571 95.8409 57.476C95.7619 56.741 96.4609 55.991 96.8619 55.429C97.8569 53.946 98.9759 52.367 100.375 51.247C101.445 51.701 102.383 52.419 103.349 53.059C105.729 54.636 108.351 55.464 111.224 55.378C113.778 55.3 116.534 54.431 118.297 52.501C120.417 50.185 120.647 47.059 120.565 44.079C117.689 46.107 115.975 47.555 112.362 48.122C108.164 48.78 103.716 47.839 100.28 45.314C96.8019 42.756 94.3029 38.924 93.6819 34.628C92.9149 29.309 93.6419 24.042 96.9359 19.668C99.5439 16.202 103.441 14.004 107.714 13.378V13.377ZM113.197 39.987C118.289 39.137 121.717 34.306 120.839 29.218C120.642 28.0027 120.206 26.8385 119.557 25.7927C118.907 24.7469 118.056 23.8403 117.054 23.1253C116.052 22.4103 114.918 21.901 113.718 21.627C112.518 21.353 111.275 21.3196 110.062 21.5289C108.848 21.7382 107.689 22.1858 106.65 22.8461C105.611 23.5064 104.713 24.366 104.008 25.3755C103.303 26.3849 102.805 27.5241 102.544 28.7271C102.282 29.93 102.261 31.173 102.483 32.384C102.901 34.8103 104.263 36.9723 106.271 38.3972C108.278 39.8222 110.769 40.3931 113.197 39.987ZM69.4669 13.282C79.6629 12.347 88.6739 19.886 89.5509 30.087C90.4269 40.288 82.8369 49.254 72.6309 50.073C62.5079 50.886 53.6289 43.37 52.7589 33.251C51.8889 23.131 59.3539 14.211 69.4669 13.282ZM73.0519 41.497C75.4279 40.999 77.4399 39.715 78.7949 37.681C80.3649 35.321 80.8189 32.015 80.2469 29.265C79.9756 28.0084 79.4557 26.8188 78.7178 25.7662C77.9798 24.7136 77.0387 23.8194 75.9499 23.136C73.9879 21.879 71.8089 21.49 69.5059 21.726C67.1129 22.221 65.1439 23.786 63.8289 25.811C62.2661 28.2294 61.7232 31.1678 62.3189 33.985C62.5895 35.248 63.1069 36.4452 63.8414 37.5078C64.5759 38.5704 65.513 39.4775 66.5989 40.177C68.5859 41.432 70.7439 41.719 73.0519 41.497ZM2.91188 0.0639954C5.04966 -0.000608444 7.18943 0.0551386 9.32094 0.230988C9.60794 3.88699 9.52893 7.69599 9.53993 11.369L9.55989 28.61C14.4139 24.096 18.2929 18.526 23.2539 14.122C24.9609 14.013 30.6969 14.163 32.2799 14.519C32.3129 16.203 21.1999 26.587 19.5529 29.24L19.4819 29.359C22.3239 33.625 25.5809 37.704 28.6419 41.82C30.2149 43.97 31.9349 46.093 33.0819 48.507C29.9089 48.957 26.5579 48.865 23.3609 48.742C21.7799 47.294 20.6369 45.465 19.4079 43.725C17.3599 40.825 15.3419 37.772 12.9979 35.105C12.0679 36.368 10.8179 37.36 9.88789 38.639C9.76989 40.335 10.1509 47.53 9.12788 48.489C8.12988 49.421 2.00288 48.973 0.49788 48.866C-0.17412 45.37 0.132907 38.98 0.0879072 35.236C-0.0580928 23.605 -0.0220982 11.972 0.194902 0.342987C1.0889 0.178987 2.00688 0.136995 2.91188 0.0639954ZM140.919 5.03998C142.545 4.89998 146.289 4.71998 147.673 5.46698C148.41 6.60098 148.126 12.667 148.126 14.387L154.784 14.369C155.5 14.371 156.228 14.431 156.734 15.001C157.652 16.036 157.098 20.136 156.947 21.6C154.017 21.976 151.122 22 148.176 22.042C148.371 27.704 147.949 33.4 148.224 39.064C148.482 39.441 148.747 39.802 149.068 40.128C151.223 42.315 154.136 41.255 156.824 41.24C157.205 43.35 157.312 45.47 157.07 47.6C157.054 48.039 157.064 48.381 156.73 48.712C155.588 49.848 152.38 49.865 150.87 49.882C147.552 49.924 144.587 49.399 142.157 46.977C140.786 45.611 139.817 43.751 139.352 41.877C138.747 39.446 138.942 36.701 138.9 34.207C138.815 30.216 138.786 26.223 138.81 22.231C137.499 22.259 135.017 22.59 134.021 21.611C133.141 20.747 133.671 16.016 133.659 14.551C135.377 14.538 137.099 14.434 138.815 14.363C138.84 12.448 138.465 6.93099 139.255 5.39499C139.755 5.07899 140.342 5.09098 140.919 5.03998ZM38.0619 0.000976562C39.9839 0.0949766 45.0649 -0.159 46.4759 0.431C46.7479 1.003 46.7659 1.70097 46.7949 2.32797C46.9579 5.87697 46.8849 9.455 46.9149 13.008C46.9749 20.56 46.9909 28.112 46.9629 35.665C46.9579 38.775 46.9309 41.886 46.8799 44.998C46.8559 46.203 46.9819 47.684 46.7039 48.838L46.3639 48.916C44.2809 48.936 42.1849 49.187 40.1029 49.118C39.2009 49.088 38.2479 48.998 37.6029 48.305C37.2169 46.291 37.4009 44.069 37.4059 42.017L37.4279 32.257C37.4029 25.317 37.4179 18.379 37.4719 11.44C37.5079 8.094 37.4359 4.69199 37.6889 1.35699C37.7289 0.827995 37.8069 0.465977 38.0619 0.000976562Z" fill="#1D3C43"/>
</svg>
